<svg width="75" height="75" viewBox="0 0 75 75" fill="none" xmlns="http://www.w3.org/2000/svg">
<path d="M52.8293 36.1807C53.3981 36.5788 53.3981 37.4212 52.8293 37.8193L30.8234 53.2194C30.1606 53.6833 29.25 53.2091 29.25 52.4001V21.5999C29.25 20.7909 30.1606 20.3167 30.8234 20.7806L52.8293 36.1807Z" fill="#EEEEEE"/>
<path fill-rule="evenodd" clip-rule="evenodd" d="M37.5 69C54.897 69 69 54.897 69 37.5C69 20.103 54.897 6 37.5 6C20.103 6 6 20.103 6 37.5C6 54.897 20.103 69 37.5 69ZM37.5 75C58.2107 75 75 58.2107 75 37.5C75 16.7893 58.2107 0 37.5 0C16.7893 0 0 16.7893 0 37.5C0 58.2107 16.7893 75 37.5 75Z" fill="#FFFAFA"/>
</svg>
